<svg width="547" height="129" viewBox="0 0 547 129" fill="none" xmlns="http://www.w3.org/2000/svg">
<path d="M72.672 50.048C79.2 50.048 84.448 52.064 88.416 56.096C92.448 60.064 94.464 65.632 94.464 72.8V104H81.024V74.624C81.024 70.464 79.968 67.296 77.856 65.12C75.744 62.88 72.864 61.76 69.216 61.76C65.568 61.76 62.656 62.88 60.48 65.12C58.368 67.296 57.312 70.464 57.312 74.624V104H43.872V74.624C43.872 70.464 42.816 67.296 40.704 65.12C38.592 62.88 35.712 61.76 32.064 61.76C28.352 61.76 25.408 62.88 23.232 65.12C21.12 67.296 20.064 70.464 20.064 74.624V104H6.624V50.816H20.064V57.248C21.792 55.008 24 53.248 26.688 51.968C29.44 50.688 32.448 50.048 35.712 50.048C39.872 50.048 43.584 50.944 46.848 52.736C50.112 54.464 52.64 56.96 54.432 60.224C56.16 57.152 58.656 54.688 61.92 52.832C65.248 50.976 68.832 50.048 72.672 50.048ZM114.034 44.48C111.666 44.48 109.682 43.744 108.082 42.272C106.546 40.736 105.778 38.848 105.778 36.608C105.778 34.368 106.546 32.512 108.082 31.04C109.682 29.504 111.666 28.736 114.034 28.736C116.402 28.736 118.354 29.504 119.89 31.04C121.49 32.512 122.29 34.368 122.29 36.608C122.29 38.848 121.49 40.736 119.89 42.272C118.354 43.744 116.402 44.48 114.034 44.48ZM120.658 50.816V104H107.218V50.816H120.658ZM147.377 32.96V104H133.937V32.96H147.377ZM210.095 76.256C210.095 78.176 209.967 79.904 209.711 81.44H170.831C171.151 85.28 172.495 88.288 174.863 90.464C177.231 92.64 180.143 93.728 183.599 93.728C188.591 93.728 192.143 91.584 194.255 87.296H208.751C207.215 92.416 204.271 96.64 199.919 99.968C195.567 103.232 190.223 104.864 183.887 104.864C178.767 104.864 174.159 103.744 170.063 101.504C166.031 99.2 162.863 95.968 160.559 91.808C158.319 87.648 157.199 82.848 157.199 77.408C157.199 71.904 158.319 67.072 160.559 62.912C162.799 58.752 165.935 55.552 169.967 53.312C173.999 51.072 178.639 49.952 183.887 49.952C188.943 49.952 193.455 51.04 197.423 53.216C201.455 55.392 204.559 58.496 206.735 62.528C208.975 66.496 210.095 71.072 210.095 76.256ZM196.175 72.416C196.111 68.96 194.863 66.208 192.431 64.16C189.999 62.048 187.023 60.992 183.503 60.992C180.175 60.992 177.359 62.016 175.055 64.064C172.815 66.048 171.439 68.832 170.927 72.416H196.175ZM240.257 104.864C235.905 104.864 232.001 104.096 228.545 102.56C225.089 100.96 222.337 98.816 220.289 96.128C218.305 93.44 217.217 90.464 217.025 87.2H230.561C230.817 89.248 231.809 90.944 233.537 92.288C235.329 93.632 237.537 94.304 240.161 94.304C242.721 94.304 244.705 93.792 246.113 92.768C247.585 91.744 248.321 90.432 248.321 88.832C248.321 87.104 247.425 85.824 245.633 84.992C243.905 84.096 241.121 83.136 237.281 82.112C233.313 81.152 230.049 80.16 227.489 79.136C224.993 78.112 222.817 76.544 220.961 74.432C219.169 72.32 218.273 69.472 218.273 65.888C218.273 62.944 219.105 60.256 220.769 57.824C222.497 55.392 224.929 53.472 228.065 52.064C231.265 50.656 235.009 49.952 239.297 49.952C245.633 49.952 250.689 51.552 254.465 54.752C258.241 57.888 260.321 62.144 260.705 67.52H247.841C247.649 65.408 246.753 63.744 245.153 62.528C243.617 61.248 241.537 60.608 238.913 60.608C236.481 60.608 234.593 61.056 233.249 61.952C231.969 62.848 231.329 64.096 231.329 65.696C231.329 67.488 232.225 68.864 234.017 69.824C235.809 70.72 238.593 71.648 242.369 72.608C246.209 73.568 249.377 74.56 251.873 75.584C254.369 76.608 256.513 78.208 258.305 80.384C260.161 82.496 261.121 85.312 261.185 88.832C261.185 91.904 260.321 94.656 258.593 97.088C256.929 99.52 254.497 101.44 251.297 102.848C248.161 104.192 244.481 104.864 240.257 104.864ZM287.866 61.856V87.584C287.866 89.376 288.282 90.688 289.114 91.52C290.01 92.288 291.482 92.672 293.53 92.672H299.77V104H291.322C279.994 104 274.33 98.496 274.33 87.488V61.856H267.994V50.816H274.33V37.664H287.866V50.816H299.77V61.856H287.866ZM407.534 50.048C413.87 50.048 418.99 52.064 422.894 56.096C426.798 60.064 428.75 65.632 428.75 72.8V104H415.31V74.624C415.31 70.4 414.254 67.168 412.142 64.928C410.03 62.624 407.15 61.472 403.502 61.472C399.79 61.472 396.846 62.624 394.67 64.928C392.558 67.168 391.502 70.4 391.502 74.624V104H378.062V50.816H391.502V57.44C393.294 55.136 395.566 53.344 398.318 52.064C401.134 50.72 404.206 50.048 407.534 50.048ZM490.97 76.256C490.97 78.176 490.842 79.904 490.586 81.44H451.706C452.026 85.28 453.37 88.288 455.738 90.464C458.106 92.64 461.018 93.728 464.474 93.728C469.466 93.728 473.018 91.584 475.13 87.296H489.626C488.09 92.416 485.146 96.64 480.794 99.968C476.442 103.232 471.098 104.864 464.762 104.864C459.642 104.864 455.034 103.744 450.938 101.504C446.906 99.2 443.738 95.968 441.434 91.808C439.194 87.648 438.074 82.848 438.074 77.408C438.074 71.904 439.194 67.072 441.434 62.912C443.674 58.752 446.81 55.552 450.842 53.312C454.874 51.072 459.514 49.952 464.762 49.952C469.818 49.952 474.33 51.04 478.298 53.216C482.33 55.392 485.434 58.496 487.61 62.528C489.85 66.496 490.97 71.072 490.97 76.256ZM477.05 72.416C476.986 68.96 475.738 66.208 473.306 64.16C470.874 62.048 467.898 60.992 464.378 60.992C461.05 60.992 458.234 62.016 455.93 64.064C453.69 66.048 452.314 68.832 451.802 72.416H477.05ZM521.132 104.864C516.78 104.864 512.876 104.096 509.42 102.56C505.964 100.96 503.212 98.816 501.164 96.128C499.18 93.44 498.092 90.464 497.9 87.2H511.436C511.692 89.248 512.684 90.944 514.412 92.288C516.204 93.632 518.412 94.304 521.036 94.304C523.596 94.304 525.58 93.792 526.988 92.768C528.46 91.744 529.196 90.432 529.196 88.832C529.196 87.104 528.3 85.824 526.508 84.992C524.78 84.096 521.996 83.136 518.156 82.112C514.188 81.152 510.924 80.16 508.364 79.136C505.868 78.112 503.692 76.544 501.836 74.432C500.044 72.32 499.148 69.472 499.148 65.888C499.148 62.944 499.98 60.256 501.644 57.824C503.372 55.392 505.804 53.472 508.94 52.064C512.14 50.656 515.884 49.952 520.172 49.952C526.508 49.952 531.564 51.552 535.34 54.752C539.116 57.888 541.196 62.144 541.58 67.52H528.716C528.524 65.408 527.628 63.744 526.028 62.528C524.492 61.248 522.412 60.608 519.788 60.608C517.356 60.608 515.468 61.056 514.124 61.952C512.844 62.848 512.204 64.096 512.204 65.696C512.204 67.488 513.1 68.864 514.892 69.824C516.684 70.72 519.468 71.648 523.244 72.608C527.084 73.568 530.252 74.56 532.748 75.584C535.244 76.608 537.388 78.208 539.18 80.384C541.036 82.496 541.996 85.312 542.06 88.832C542.06 91.904 541.196 94.656 539.468 97.088C537.804 99.52 535.372 101.44 532.172 102.848C529.036 104.192 525.356 104.864 521.132 104.864Z" fill="#4B5563"/>
<path d="M340.746 19.7916C340.973 19.237 341.361 18.7626 341.858 18.4288C342.356 18.0949 342.942 17.9166 343.541 17.9166C344.14 17.9166 344.726 18.0949 345.224 18.4288C345.722 18.7626 346.109 19.237 346.336 19.7916L357.758 47.2632C357.972 47.7772 358.323 48.2223 358.774 48.5495C359.224 48.8767 359.756 49.0732 360.311 49.1176L389.97 51.4933C392.652 51.7083 393.738 55.0569 391.696 56.8038L369.099 76.1646C368.677 76.5257 368.362 76.9961 368.19 77.5242C368.017 78.0523 367.993 78.6177 368.121 79.1584L375.028 108.103C375.167 108.684 375.13 109.292 374.923 109.852C374.716 110.412 374.348 110.899 373.865 111.249C373.382 111.6 372.805 111.8 372.209 111.824C371.612 111.847 371.022 111.693 370.513 111.382L345.116 95.8747C344.642 95.5855 344.097 95.4326 343.541 95.4326C342.985 95.4326 342.441 95.5855 341.966 95.8747L316.569 111.387C316.06 111.699 315.47 111.852 314.873 111.829C314.277 111.805 313.7 111.606 313.217 111.255C312.734 110.904 312.366 110.418 312.159 109.858C311.952 109.298 311.916 108.689 312.054 108.108L318.961 79.1584C319.089 78.6177 319.066 78.0521 318.893 77.5239C318.721 76.9957 318.406 76.5253 317.983 76.1646L295.386 56.8038C294.934 56.4147 294.607 55.9005 294.446 55.3259C294.285 54.7512 294.297 54.1418 294.481 53.5742C294.666 53.0066 295.014 52.5063 295.482 52.136C295.95 51.7657 296.517 51.5421 297.112 51.4933L326.771 49.1176C327.326 49.0732 327.858 48.8767 328.308 48.5495C328.759 48.2223 329.11 47.7772 329.324 47.2632L340.746 19.7916Z" fill="url(#paint0_linear_1223_16)"/>
<defs>
<linearGradient id="paint0_linear_1223_16" x1="294.333" y1="77.9965" x2="391.083" y2="77.9965" gradientUnits="userSpaceOnUse">
<stop offset="0.229167" stop-color="#CF1CEC"/>
<stop offset="0.5" stop-color="#FF335C"/>
<stop offset="0.677083" stop-color="#FF7F01"/>
<stop offset="1" stop-color="#FFC633"/>
<stop offset="1" stop-color="#FFC633"/>
</linearGradient>
</defs>
</svg>
